<svg id="Capa_1" enable-background="new 0 0 504.5 504.5" height="512" viewBox="0 0 504.5 504.5" width="512" xmlns="http://www.w3.org/2000/svg"><g><path d="m158.5 285v196.592l-24.87 8.29c-3.93 1.31-6.053 5.557-4.744 9.487 1.31 3.93 5.559 6.054 9.487 4.744l29.998-10c3.063-1.021 5.128-3.887 5.128-7.115v-201.998z" fill="#ff6b8a"/><path d="m233.5 285v196.592l24.87 8.29c3.93 1.31 6.053 5.557 4.744 9.487-1.31 3.93-5.559 6.054-9.487 4.744l-29.998-10c-3.063-1.021-5.128-3.887-5.128-7.115v-201.998z" fill="#ff4996"/><path d="m308.5 285v196.592l-24.87 8.29c-3.93 1.31-6.053 5.557-4.744 9.487 1.31 3.93 5.559 6.054 9.487 4.744l29.998-10c3.063-1.021 5.128-3.887 5.128-7.115v-201.998z" fill="#696969"/><path d="m383.5 285v196.592l24.87 8.29c3.93 1.31 6.053 5.557 4.744 9.487-1.31 3.93-5.559 6.054-9.487 4.744l-29.998-10c-3.063-1.021-5.128-3.887-5.128-7.115v-201.998z" fill="#4f4f4f"/><path d="m496 87.5c-4.143 0-7.5 3.358-7.5 7.5 0 45.491-37.01 82.5-82.5 82.5h-60v15h60c53.762 0 97.5-43.738 97.5-97.5 0-4.142-3.357-7.5-7.5-7.5z" fill="#ffa754"/><path d="m346 0-35 90h80v-45c0-24.853-20.147-45-45-45z" fill="#ff4996"/><path d="m301 45v45h45v-90c-24.853 0-45 20.147-45 45z" fill="#ff6b8a"/><path d="m346 45v90c24.853 0 45-20.147 45-45s-20.147-45-45-45z" fill="#ffb4a9"/><path d="m361 90c0-24.853-6.716-45-15-45-24.853 0-45 20.147-45 45s20.147 45 45 45c8.284 0 15-20.147 15-45z" fill="#ffd9d4"/><path d="m346 240v90c24.853 0 45-20.147 45-45z" fill="#4f4f4f"/><path d="m361 285v-45l-60 45c0 24.853 20.147 45 45 45 8.284 0 15-20.147 15-45z" fill="#696969"/><path d="m386 165h-30l-30 75 35 45h30v-45c8.964-4.993 15-14.315 15-25v-30c0-11.046-8.955-20-20-20z" fill="#ffa754"/><path d="m356 165h-50c-11.046 0-20 8.954-20 20v30c0 10.685 6.036 20.007 15 25v45h60v-45c8.964-4.993 15-14.315 15-25v-30c0-11.046-8.955-20-20-20z" fill="#ffcb63"/><path d="m188.5 235 7.5 95c24.853 0 45-20.147 45-45l-2.5-50z" fill="#ff4996"/><path d="m211 285v-50h-60v50c0 24.853 20.147 45 45 45 8.284 0 15-20.147 15-45z" fill="#ff6b8a"/><path d="m236 165h-30l20 116.822c8.212 1.953 17.881 3.178 30 3.178v-100c0-11.046-8.954-20-20-20z" fill="#ccc"/><path d="m206 165h-50c-11.046 0-20 8.954-20 20v70c47.881 0 57.554 19.104 90 26.822v-96.822c0-11.046-8.954-20-20-20z" fill="#ebebeb"/><path d="m83.5 165h-30l22.5 65c0 .729-.07 1.441-.17 2.143l1.091 2.989c2.097 5.753 7.6 9.868 14.079 9.868 8.284 0 15-6.716 15-15v-42.5c0-12.426-10.074-22.5-22.5-22.5z" fill="#b3b3b3"/><path d="m76 187.5c0-12.426-10.074-22.5-22.5-22.5h-30c-12.426 0-22.5 10.074-22.5 22.5v42.5c0 8.284 6.716 15 15 15 6.479 0 11.982-4.115 14.08-9.868l9.168-25.132h28.504l8.078 22.143c.1-.702.17-1.413.17-2.143z" fill="#ccc"/><path d="m224.593 19.115c-.069-3.745-1.522-7.47-4.38-10.328-3.635-3.635-8.671-5.01-13.37-4.134-2.732-2.861-6.575-4.653-10.843-4.653s-8.111 1.792-10.843 4.653c-4.699-.876-9.735.498-13.37 4.134-2.858 2.858-4.311 6.583-4.38 10.328-2.889 2.734-4.7 6.594-4.7 10.885 0 8.284 6.716 15 15 15h36.586c8.284 0 15-6.716 15-15 0-4.291-1.811-8.151-4.7-10.885z" fill="#40211d"/><path d="m196 45v90c24.853 0 45-20.147 45-45s-20.147-45-45-45z" fill="#a45e43"/><path d="m211 90c0-24.853-6.716-45-15-45-24.853 0-45 20.147-45 45s20.147 45 45 45c8.284 0 15-20.147 15-45z" fill="#c27749"/></g></svg>